<?xml version="1.0" standalone="no"?>
<!DOCTYPE svg PUBLIC "-//W3C//DTD SVG 20010904//EN"
 "http://www.w3.org/TR/2001/REC-SVG-20010904/DTD/svg10.dtd">
<svg version="1.0" xmlns="http://www.w3.org/2000/svg"
 width="1115.000000pt" height="1082.000000pt" viewBox="0 0 1115.000000 1082.000000"
 preserveAspectRatio="xMidYMid meet">

<g transform="translate(0.000000,1082.000000) scale(0.100000,-0.100000)"
fill="#000000" stroke="none">
<path d="M5370 10734 c-19 -8 -111 -64 -205 -124 -93 -60 -225 -145 -293 -187
-67 -43 -267 -170 -443 -283 -176 -113 -328 -209 -337 -215 -21 -13 -172 -109
-550 -350 -172 -110 -330 -211 -352 -225 -286 -179 -398 -254 -415 -276 -47
-62 -46 -51 -51 -959 -36 -6978 -33 -6652 -55 -6710 -46 -122 -181 -196 -334
-181 -33 3 -526 8 -1095 12 l-1035 6 -43 -28 c-63 -42 -97 -116 -88 -190 3
-31 14 -70 23 -87 22 -44 78 -92 123 -106 27 -8 1424 -11 5271 -11 l5234 0 52
24 c77 36 108 88 108 182 0 81 -11 104 -79 158 l-38 31 -1156 5 c-1110 5
-1158 6 -1192 24 -68 37 -109 77 -139 138 l-31 61 0 3727 c0 3720 0 3727 -20
3786 -23 67 -60 128 -99 163 -21 20 -111 80 -206 138 -11 7 -51 31 -90 55 -38
23 -107 66 -152 95 -46 29 -85 53 -88 53 -3 0 -105 62 -227 138 -123 76 -313
194 -423 262 -110 68 -242 149 -293 182 -50 32 -95 58 -98 58 -3 0 -31 17 -62
37 -31 21 -66 42 -77 48 -24 13 -675 416 -788 487 -129 82 -182 95 -257 62z
m432 -542 c40 -26 95 -61 122 -78 27 -16 59 -36 72 -44 13 -8 152 -96 309
-195 157 -99 304 -191 325 -205 22 -14 143 -90 270 -170 127 -80 248 -156 270
-170 21 -14 81 -51 132 -83 346 -217 547 -344 561 -356 15 -12 17 -55 17 -422
0 -281 -3 -409 -11 -409 -5 0 -85 44 -177 98 -161 96 -269 158 -342 200 -19
10 -104 60 -189 111 -84 50 -154 91 -155 91 -2 0 -103 59 -227 131 -123 73
-260 153 -304 178 -44 25 -88 50 -97 56 -9 5 -72 42 -140 82 -310 180 -501
293 -514 304 -12 10 -14 84 -14 464 0 393 2 465 16 465 1 0 35 -22 76 -48z
m-562 -29 l23 -26 -7 -1051 c-7 -1210 -14 -2942 -22 -5806 -3 -1108 -9 -2018
-13 -2023 -4 -4 -482 -6 -1062 -5 l-1054 3 0 3824 0 3825 43 25 c23 14 111 69
195 122 83 53 258 163 387 244 270 169 489 308 540 340 70 45 178 113 295 185
66 41 122 78 123 82 2 5 7 8 12 8 4 0 50 27 101 60 52 34 107 69 122 78 16 9
72 45 125 79 114 72 154 80 192 36z m927 -1624 c230 -138 454 -273 498 -299
132 -77 299 -179 312 -190 7 -5 15 -10 17 -10 3 0 65 -37 138 -82 73 -45 158
-96 188 -113 51 -30 255 -153 290 -175 45 -28 227 -136 245 -145 20 -10 20
-20 23 -420 1 -225 -1 -412 -5 -416 -5 -5 -68 28 -141 71 -73 44 -136 80 -138
80 -3 0 -20 11 -38 25 -18 14 -36 25 -39 25 -3 0 -59 32 -124 71 -155 94 -221
133 -263 157 -78 44 -619 366 -677 403 -34 21 -65 39 -68 39 -3 0 -45 24 -93
53 -146 89 -255 153 -302 180 -25 14 -97 56 -160 95 l-115 70 -3 408 c-1 225
0 415 3 423 3 7 12 11 19 8 8 -3 203 -119 433 -258z m-161 -1235 c148 -91 283
-173 299 -181 17 -9 32 -19 35 -23 3 -4 41 -28 85 -54 44 -26 100 -61 125 -77
25 -16 52 -32 60 -36 8 -4 45 -26 83 -50 37 -23 67 -40 67 -35 0 4 4 2 8 -4 7
-11 505 -322 772 -482 133 -80 237 -145 258 -162 9 -8 12 -102 12 -407 0 -388
0 -395 -20 -390 -17 4 -209 114 -300 172 -19 13 -141 85 -270 161 -129 76
-257 152 -285 169 -27 17 -57 35 -65 38 -8 4 -22 11 -30 17 -8 5 -55 34 -105
63 -264 158 -351 208 -359 207 -5 -1 -12 3 -15 8 -3 5 -98 65 -211 132 -113
67 -258 153 -322 192 l-118 70 0 412 c0 227 3 416 7 419 3 4 9 7 13 7 4 0 128
-75 276 -166z m-225 -1222 c24 -16 116 -73 204 -127 88 -54 176 -108 195 -120
52 -33 226 -141 380 -235 74 -45 227 -140 340 -210 113 -70 338 -209 500 -310
162 -100 321 -199 352 -219 l58 -36 0 -412 c0 -226 -4 -414 -9 -417 -5 -3 -51
21 -104 54 -52 33 -98 60 -102 60 -3 0 -11 5 -18 10 -17 15 -114 76 -269 171
-73 45 -140 87 -149 95 -8 8 -19 14 -22 14 -4 0 -33 17 -64 37 -71 46 -94 60
-113 69 -8 4 -36 22 -61 40 -25 17 -61 40 -80 49 -19 10 -65 38 -104 63 -38
25 -88 56 -110 70 -22 14 -59 38 -82 54 -23 15 -44 28 -48 28 -3 0 -21 11 -39
25 -18 14 -36 25 -40 25 -5 0 -22 10 -39 23 -34 24 -44 30 -103 65 -22 12 -59
36 -84 52 -25 16 -63 40 -85 53 -152 91 -258 157 -310 193 l-60 40 -3 400 c-1
219 0 405 3 411 7 19 16 16 66 -15z m11 -1360 c32 -20 295 -185 585 -366 291
-181 571 -357 623 -391 52 -33 102 -64 110 -68 8 -4 59 -35 112 -70 54 -34
208 -131 343 -215 l245 -153 0 -77 c0 -42 4 -140 9 -217 19 -284 24 -545 10
-545 -7 0 -42 19 -78 42 -36 22 -82 51 -101 63 -31 20 -730 452 -1175 727 -88
54 -167 103 -175 108 -8 5 -50 31 -93 57 -42 26 -96 60 -120 75 -23 15 -48 31
-55 34 -29 14 -268 164 -294 184 l-28 22 0 414 c0 325 3 414 13 413 6 0 38
-17 69 -37z m175 -1452 c109 -66 205 -124 213 -129 8 -5 62 -38 120 -74 132
-81 1050 -639 1140 -693 25 -15 134 -81 243 -147 l197 -120 0 -424 c0 -342 -3
-423 -13 -423 -7 0 -152 84 -323 186 -170 103 -345 208 -389 234 -44 26 -200
120 -347 208 -147 89 -282 170 -300 181 -95 54 -775 465 -785 475 -10 9 -9 95
3 406 16 412 19 440 34 440 5 0 98 -54 207 -120z m-180 -1293 c54 -35 190
-125 303 -199 113 -74 300 -197 415 -273 374 -245 365 -239 341 -248 -11 -5
-75 -6 -141 -2 -66 3 -277 10 -470 15 -192 6 -396 13 -452 16 l-103 7 0 373
c0 206 2 374 5 374 2 0 48 -29 102 -63z"/>
<path d="M1635 423 c-151 -34 -203 -204 -97 -317 15 -16 42 -35 59 -42 49 -21
7724 -21 7774 0 40 17 80 57 104 104 33 66 -7 160 -95 224 l-44 33 -3841 1
c-2112 1 -3849 0 -3860 -3z"/>
</g>
</svg>
